<svg width="235" height="61" viewBox="0 0 235 61" fill="none" xmlns="http://www.w3.org/2000/svg"><path d="M29.8222 0H10.8444v9.85385H0V29.5615h18.9778v-9.8538h10.8444V0z" fill="#C82F63"/><path d="M0 31.4385h18.9778v9.8538h10.8444V61H10.8444v-9.8538H0V31.4385z" fill="#822659"/><path d="M61 31.4385H42.0222v9.8538H31.1778V61h18.9777v-9.8538H61V31.4385z" fill="#E36BAE"/><path d="M61 29.5615H42.0222v-9.8538H31.1778V0h18.9777v9.85385H61V29.5615z" fill="#EC7EAD"/><path d="M84.0391 36.1758h7.4648V39H80.5234V21.9375h3.5157v14.2383zm23.3249-14.2383v11.2383c0 1.8672-.586 3.3437-1.758 4.4297-1.164 1.0859-2.758 1.6289-4.781 1.6289-1.9922 0-3.5742-.5274-4.7461-1.5821-1.1719-1.0546-1.7695-2.5039-1.793-4.3476V21.9375h3.5157v11.2617c0 1.1172.2656 1.9336.7968 2.4492.5391.5078 1.2813.7618 2.2266.7618 1.977 0 2.98-1.0391 3.012-3.1172V21.9375h3.527zm17.477 11.3789c-.132 1.8359-.812 3.2813-2.039 4.3359-1.218 1.0547-2.828 1.5821-4.828 1.5821-2.187 0-3.91-.7344-5.168-2.2032-1.25-1.4765-1.875-3.5-1.875-6.0703V29.918c0-1.6407.289-3.086.867-4.336.579-1.25 1.403-2.207 2.473-2.8711 1.078-.6718 2.328-1.0078 3.75-1.0078 1.969 0 3.555.5274 4.758 1.5821 1.203 1.0546 1.898 2.5351 2.086 4.4414h-3.516c-.086-1.1016-.394-1.8985-.926-2.3907-.523-.5-1.324-.75-2.402-.75-1.172 0-2.051.4219-2.637 1.2657-.578.8359-.875 2.1367-.89 3.9023v1.2891c0 1.8437.277 3.1914.832 4.0429.562.8516 1.445 1.2774 2.648 1.2774 1.086 0 1.895-.2461 2.426-.7383.539-.5.848-1.2695.926-2.3086h3.515zm13.142 2.168h-6.164L130.647 39h-3.738l6.351-17.0625h3.258L142.905 39h-3.739l-1.183-3.5156zm-5.215-2.8477h4.266l-2.145-6.3867-2.121 6.3867zm21.778 1.8867c0-.664-.234-1.1718-.703-1.5234-.469-.3594-1.313-.7344-2.531-1.125-1.219-.3984-2.184-.7891-2.895-1.1719-1.937-1.0469-2.906-2.457-2.906-4.2304 0-.9219.258-1.7422.773-2.461.524-.7265 1.27-1.2929 2.239-1.6992.976-.4063 2.07-.6094 3.281-.6094 1.219 0 2.305.2227 3.258.668.953.4375 1.691 1.0586 2.215 1.8633.531.8047.796 1.7187.796 2.7422h-3.515c0-.7813-.246-1.3868-.738-1.8164-.493-.4375-1.184-.6563-2.075-.6563-.859 0-1.527.1836-2.004.5508-.476.3594-.714.8359-.714 1.4297 0 .5547.277 1.0195.832 1.3945.562.375 1.386.7266 2.472 1.0547 2 .6016 3.457 1.3476 4.371 2.2383.914.8906 1.371 2 1.371 3.3281 0 1.4766-.558 2.6367-1.675 3.4805-1.118.8359-2.621 1.2539-4.512 1.2539-1.313 0-2.508-.2383-3.586-.7149-1.078-.4843-1.902-1.1445-2.473-1.9804-.562-.836-.843-1.8047-.843-2.9063h3.527c0 1.8828 1.125 2.8242 3.375 2.8242.836 0 1.488-.1679 1.957-.5039.469-.3437.703-.8203.703-1.4297z" fill="#fff"/><path d="M175.157 32.7539h-2.801V39h-3.515V21.9375h6.339c2.016 0 3.571.4492 4.665 1.3477 1.093.8984 1.64 2.1679 1.64 3.8086 0 1.164-.254 2.1367-.762 2.9179-.5.7735-1.261 1.3906-2.285 1.8516l3.692 6.9726V39h-3.774l-3.199-6.2461zm-2.801-2.8477h2.836c.883 0 1.567-.2226 2.051-.6679.484-.4531.727-1.0742.727-1.8633 0-.8047-.231-1.4375-.692-1.8984-.453-.461-1.152-.6914-2.098-.6914h-2.824v5.121zm27.028.9493c0 1.6797-.296 3.1523-.89 4.4179-.594 1.2657-1.446 2.2422-2.555 2.9297-1.101.6875-2.367 1.0313-3.797 1.0313-1.414 0-2.676-.3399-3.785-1.0196-1.109-.6796-1.969-1.6484-2.578-2.9062-.609-1.2656-.918-2.7188-.926-4.3594v-.8437c0-1.6797.301-3.1563.902-4.4297.61-1.2813 1.465-2.2617 2.567-2.9414 1.109-.6875 2.375-1.0313 3.797-1.0313 1.422 0 2.683.3438 3.785 1.0313 1.109.6797 1.965 1.6601 2.566 2.9414.61 1.2734.914 2.7461.914 4.418v.7617zm-3.562-.7735c0-1.789-.32-3.1484-.961-4.0781s-1.555-1.3945-2.742-1.3945c-1.18 0-2.09.4609-2.731 1.3828-.64.914-.965 2.2578-.972 4.0312v.8321c0 1.7422.32 3.0937.961 4.0547.64.9609 1.562 1.4414 2.765 1.4414 1.18 0 2.086-.461 2.719-1.3828.633-.9297.953-2.2813.961-4.0547v-.8321zm16.165 4.4414c0-.664-.235-1.1718-.703-1.5234-.469-.3594-1.313-.7344-2.532-1.125-1.218-.3984-2.183-.7891-2.894-1.1719-1.938-1.0469-2.906-2.457-2.906-4.2304 0-.9219.257-1.7422.773-2.461.523-.7265 1.27-1.2929 2.238-1.6992.977-.4063 2.071-.6094 3.282-.6094 1.218 0 2.304.2227 3.257.668.953.4375 1.692 1.0586 2.215 1.8633.531.8047.797 1.7187.797 2.7422h-3.516c0-.7813-.246-1.3868-.738-1.8164-.492-.4375-1.183-.6563-2.074-.6563-.859 0-1.527.1836-2.004.5508-.477.3594-.715.8359-.715 1.4297 0 .5547.278 1.0195.832 1.3945.563.375 1.387.7266 2.473 1.0547 2 .6016 3.457 1.3476 4.371 2.2383.914.8906 1.371 2 1.371 3.3281 0 1.4766-.559 2.6367-1.676 3.4805-1.117.8359-2.621 1.2539-4.511 1.2539-1.313 0-2.508-.2383-3.586-.7149-1.079-.4843-1.903-1.1445-2.473-1.9804-.563-.836-.844-1.8047-.844-2.9063h3.528c0 1.8828 1.125 2.8242 3.375 2.8242.835 0 1.488-.1679 1.957-.5039.468-.3437.703-.8203.703-1.4297zm16.751.961h-6.165L221.402 39h-3.739l6.352-17.0625h3.258L233.659 39h-3.738l-1.183-3.5156zm-5.215-2.8477h4.265l-2.144-6.3867-2.121 6.3867z" fill="#C82F63"/></svg>