<svg width="133" height="30" viewBox="0 0 133 30" fill="none" xmlns="http://www.w3.org/2000/svg">
<path d="M14.6667 0H5.33333V4.84615H0V14.5385H9.33333V9.69231H14.6667V0Z" fill="#C82F63"/>
<path d="M0 15.4615H9.33333V20.3077H14.6667V30H5.33333V25.1539H0V15.4615Z" fill="#822659"/>
<path d="M30 15.4615H20.6667V20.3077H15.3333V30H24.6667V25.1539H30V15.4615Z" fill="#E36BAE"/>
<path d="M30 14.5385H20.6667V9.69231H15.3333V0H24.6667V4.84616H30V14.5385Z" fill="#EC7EAD"/>
<path d="M44.9395 18.3525H49.2939V20H42.8887V10.0469H44.9395V18.3525ZM58.5457 10.0469V16.6025C58.5457 17.6917 58.2039 18.5531 57.5203 19.1865C56.8413 19.82 55.9116 20.1367 54.7312 20.1367C53.5691 20.1367 52.6463 19.8291 51.9627 19.2139C51.2791 18.5986 50.9305 17.7533 50.9168 16.6777V10.0469H52.9676V16.6162C52.9676 17.2679 53.1225 17.7441 53.4324 18.0449C53.7469 18.3411 54.1798 18.4893 54.7312 18.4893C55.8842 18.4893 56.4699 17.8831 56.4881 16.6709V10.0469H58.5457ZM68.7408 16.6846C68.6633 17.7555 68.2669 18.5986 67.5514 19.2139C66.8404 19.8291 65.9016 20.1367 64.735 20.1367C63.4589 20.1367 62.454 19.7083 61.7203 18.8516C60.9911 17.9902 60.6266 16.8099 60.6266 15.3105V14.7021C60.6266 13.7451 60.7952 12.902 61.1324 12.1729C61.4697 11.4437 61.9505 10.8854 62.5748 10.498C63.2037 10.1061 63.9329 9.91016 64.7623 9.91016C65.9107 9.91016 66.8359 10.2178 67.5377 10.833C68.2395 11.4482 68.6451 12.3118 68.7545 13.4238H66.7037C66.6536 12.7812 66.4736 12.3164 66.1637 12.0293C65.8583 11.7376 65.3912 11.5918 64.7623 11.5918C64.0787 11.5918 63.566 11.8379 63.2242 12.3301C62.887 12.8177 62.7138 13.5765 62.7047 14.6064V15.3584C62.7047 16.4339 62.8665 17.2201 63.19 17.7168C63.5182 18.2135 64.0331 18.4619 64.735 18.4619C65.3684 18.4619 65.8401 18.3184 66.15 18.0312C66.4645 17.7396 66.6445 17.2907 66.69 16.6846H68.7408ZM76.4066 17.9492H72.8109L72.1273 20H69.9467L73.6518 10.0469H75.5521L79.2777 20H77.0971L76.4066 17.9492ZM73.3646 16.2881H75.8529L74.602 12.5625L73.3646 16.2881ZM86.0686 17.3887C86.0686 17.0013 85.9318 16.7051 85.6584 16.5C85.385 16.2904 84.8928 16.0716 84.1818 15.8438C83.4709 15.6113 82.9081 15.3835 82.4934 15.1602C81.3632 14.5495 80.798 13.7269 80.798 12.6924C80.798 12.1546 80.9484 11.6761 81.2492 11.2568C81.5546 10.833 81.9898 10.5026 82.5549 10.2656C83.1245 10.0286 83.7626 9.91016 84.4689 9.91016C85.1799 9.91016 85.8133 10.04 86.3693 10.2998C86.9253 10.555 87.356 10.9173 87.6613 11.3867C87.9712 11.8561 88.1262 12.3893 88.1262 12.9863H86.0754C86.0754 12.5306 85.9318 12.1774 85.6447 11.9268C85.3576 11.6715 84.9543 11.5439 84.4348 11.5439C83.9335 11.5439 83.5438 11.651 83.2658 11.8652C82.9878 12.0749 82.8488 12.3529 82.8488 12.6992C82.8488 13.0228 83.0106 13.2939 83.3342 13.5127C83.6623 13.7314 84.1431 13.9365 84.7766 14.1279C85.9432 14.4788 86.7932 14.9141 87.3264 15.4336C87.8596 15.9531 88.1262 16.6003 88.1262 17.375C88.1262 18.2363 87.8003 18.9131 87.1486 19.4053C86.4969 19.8929 85.6197 20.1367 84.5168 20.1367C83.7512 20.1367 83.0539 19.9977 82.425 19.7197C81.7961 19.4372 81.3153 19.0521 80.9826 18.5645C80.6545 18.0768 80.4904 17.5117 80.4904 16.8691H82.548C82.548 17.9674 83.2043 18.5166 84.5168 18.5166C85.0044 18.5166 85.385 18.4186 85.6584 18.2227C85.9318 18.0221 86.0686 17.7441 86.0686 17.3887Z" fill="white"/>
<path d="M98.0916 16.3564H96.4578V20H94.407V10.0469H98.1053C99.2811 10.0469 100.188 10.3089 100.826 10.833C101.464 11.3571 101.783 12.0977 101.783 13.0547C101.783 13.7337 101.635 14.3011 101.339 14.7568C101.047 15.208 100.603 15.568 100.006 15.8369L102.159 19.9043V20H99.9578L98.0916 16.3564ZM96.4578 14.6953H98.1121C98.6271 14.6953 99.0258 14.5654 99.3084 14.3057C99.591 14.0413 99.7322 13.679 99.7322 13.2188C99.7322 12.7493 99.5978 12.3802 99.3289 12.1113C99.0646 11.8424 98.6567 11.708 98.1053 11.708H96.4578V14.6953ZM112.224 15.249C112.224 16.2288 112.051 17.0879 111.705 17.8262C111.358 18.5645 110.862 19.1341 110.214 19.5352C109.572 19.9362 108.834 20.1367 108 20.1367C107.175 20.1367 106.439 19.9385 105.792 19.542C105.144 19.1455 104.643 18.5804 104.288 17.8467C103.932 17.1084 103.752 16.2607 103.748 15.3037V14.8115C103.748 13.8317 103.923 12.9704 104.274 12.2275C104.629 11.4801 105.129 10.9082 105.771 10.5117C106.418 10.1107 107.157 9.91016 107.986 9.91016C108.815 9.91016 109.551 10.1107 110.194 10.5117C110.841 10.9082 111.34 11.4801 111.691 12.2275C112.046 12.9704 112.224 13.8294 112.224 14.8047V15.249ZM110.146 14.7979C110.146 13.7542 109.959 12.9613 109.586 12.4189C109.212 11.8766 108.679 11.6055 107.986 11.6055C107.298 11.6055 106.767 11.8743 106.393 12.4121C106.019 12.9453 105.83 13.7292 105.826 14.7637V15.249C105.826 16.2653 106.013 17.0537 106.386 17.6143C106.76 18.1748 107.298 18.4551 108 18.4551C108.688 18.4551 109.216 18.1862 109.586 17.6484C109.955 17.1061 110.142 16.3177 110.146 15.2832V14.7979ZM119.576 17.3887C119.576 17.0013 119.439 16.7051 119.165 16.5C118.892 16.2904 118.4 16.0716 117.689 15.8438C116.978 15.6113 116.415 15.3835 116 15.1602C114.87 14.5495 114.305 13.7269 114.305 12.6924C114.305 12.1546 114.455 11.6761 114.756 11.2568C115.062 10.833 115.497 10.5026 116.062 10.2656C116.632 10.0286 117.27 9.91016 117.976 9.91016C118.687 9.91016 119.32 10.04 119.876 10.2998C120.432 10.555 120.863 10.9173 121.168 11.3867C121.478 11.8561 121.633 12.3893 121.633 12.9863H119.582C119.582 12.5306 119.439 12.1774 119.152 11.9268C118.865 11.6715 118.461 11.5439 117.942 11.5439C117.44 11.5439 117.051 11.651 116.773 11.8652C116.495 12.0749 116.356 12.3529 116.356 12.6992C116.356 13.0228 116.518 13.2939 116.841 13.5127C117.169 13.7314 117.65 13.9365 118.284 14.1279C119.45 14.4788 120.3 14.9141 120.833 15.4336C121.367 15.9531 121.633 16.6003 121.633 17.375C121.633 18.2363 121.307 18.9131 120.656 19.4053C120.004 19.8929 119.127 20.1367 118.024 20.1367C117.258 20.1367 116.561 19.9977 115.932 19.7197C115.303 19.4372 114.822 19.0521 114.49 18.5645C114.162 18.0768 113.997 17.5117 113.997 16.8691H116.055C116.055 17.9674 116.711 18.5166 118.024 18.5166C118.511 18.5166 118.892 18.4186 119.165 18.2227C119.439 18.0221 119.576 17.7441 119.576 17.3887ZM129.347 17.9492H125.751L125.068 20H122.887L126.592 10.0469H128.492L132.218 20H130.037L129.347 17.9492ZM126.305 16.2881H128.793L127.542 12.5625L126.305 16.2881Z" fill="#C82F63"/>
</svg>
